<svg t="1703344139857" class="icon" viewBox="0 0 1024 1024" version="1.1" xmlns="http://www.w3.org/2000/svg" p-id="10378" width="200" height="200"><path d="M952.690688 242.14528L734.447616 124.928h-47.0528c-6.49216 0-12.98432 2.011136-15.415296 8.503296-19.47648 51.924992-83.566592 89.84576-159.019008 89.84576-76.263424 0-139.542528-36.595712-159.019008-89.33376-2.430976-6.49216-8.112128-9.013248-15.415296-9.013248h-47.0528l-219.05408 117.21728c-8.116224 4.059136-10.549248 13.586432-6.49216 20.885504l90.054656 157.696c3.248128 4.868096 8.116224 7.856128 13.795328 7.856128 2.430976 0 9.867264-0.935936 12.29824-1.746944L260.096 386.14016v479.483904c0 17.850368 6.227968 35.495936 24.07424 35.495936h454.336512c17.846272 0 25.397248-17.64352 25.397248-35.495936V383.70304l78.166016 42.190848c2.435072 1.624064 7.442432 2.430976 9.879552 2.430976 5.679104 0 12.240896-3.244032 14.671872-8.112128l91.308032-157.184c4.05504-8.11008 2.066432-16.82432-5.238784-20.883456z m-116.82816 102.617088l-34.244608-18.659328L702.464 270.92992V837.632H321.536V276.611072l-98.189312 52.736-32.8704 17.84832-41.992192-73.015296 160.331776-87.62368c38.946816 61.661184 116.676608 101.414912 204.29824 101.414912 87.621632-1.624064 165.429248-40.564736 205.187072-102.227968l158.976 86.812672-41.414656 72.206336z" p-id="10379"></path></svg>